<svg width="100" height="100" version="1.1" viewBox="0 0 26.458 26.458" xmlns="http://www.w3.org/2000/svg"><circle cx="13.229" cy="13.229" r="12.965" fill="#549095" fill-rule="evenodd" stroke-dashoffset=".45354" stroke-linecap="round" stroke-linejoin="round" stroke-width="1.5875"/><g fill-rule="evenodd" stroke-dashoffset=".45354" stroke-linecap="round" stroke-linejoin="round" stroke-width="1.5875"><path d="m7.9375 13.229 1e-6 -5.2917c1e-7 -0.14613 0.11846-0.26458 0.26458-0.26458h2.1167c0.14613 0 0.26458 0.11846 0.26458 0.26458v3.7042c0 0.14613 0.11846 0.26458 0.26458 0.26458h2.3812v1.3229zm10.583 0-1e-6 -5.2917c0-0.14613-0.11846-0.26458-0.26458-0.26458h-2.1167c-0.14613 0-0.26458 0.11846-0.26458 0.26458v3.7042c0 0.14613-0.11846 0.26458-0.26458 0.26458h-2.3812v1.3229zm-10.583 0 1e-6 5.2917c1e-7 0.14612 0.11846 0.26458 0.26458 0.26458h2.1167c0.14613 0 0.26458-0.11846 0.26458-0.26458v-3.7042c0-0.14613 0.11846-0.26458 0.26458-0.26458h2.3812v-1.3229zm10.583 0-1e-6 5.2917c0 0.14612-0.11846 0.26458-0.26458 0.26458h-2.1167c-0.14613 0-0.26458-0.11846-0.26458-0.26458v-3.7042c0-0.14613-0.11846-0.26458-0.26458-0.26458h-2.3812v-1.3229z" fill="#fff"/><path d="m5.2917 5.7917v0.32292c0 0.27614 0.22386 0.5 0.5 0.5h7.4375v-1.3229h-7.4375c-0.27614 0-0.5 0.22386-0.5 0.5zm0 14.875v-0.32292c0-0.27614 0.22386-0.5 0.5-0.5h7.4375v1.3229h-7.4375c-0.27614 0-0.5-0.22386-0.5-0.5zm15.875-14.875v0.32292c0 0.27614-0.22386 0.5-0.5 0.5h-7.4375v-1.3229h7.4375c0.27614 0 0.5 0.22386 0.5 0.5zm0 14.875v-0.32292c0-0.27614-0.22386-0.5-0.5-0.5h-7.4375v1.3229h7.4375c0.27614 0 0.5-0.22386 0.5-0.5z" fill="#c68d57"/></g></svg>
